<svg xmlns="http://www.w3.org/2000/svg" viewBox="0 0 240 234">
  <title>Adobe Photoshop</title>
  <path fill="#001E36" d="M42.5 0h155C221 0 240 19 240 42.5v149c0 23.5-19 42.5-42.5 42.5h-155C19 234 0 215 0 191.5v-149C0 19 19 0 42.5 0z"/>
  <path fill="#31A8FF" d="M54 164.1V61.2c0-.7.3-1.1 1-1.1 1.7 0 3.3 0 5.6-.1 2.4-.1 4.9-.1 7.6-.2 2.7-.1 5.6-.1 8.7-.2 3.1-.1 6.1-.1 9.1-.1 8.2 0 15 1 20.6 3.1 5 1.7 9.6 4.5 13.4 8.2 3.2 3.2 5.7 7.1 7.3 11.4 1.5 4.2 2.3 8.5 2.3 13 0 8.6-2 15.7-6 21.3-4 5.6-9.6 9.8-16.1 12.2-6.8 2.5-14.3 3.75-22.5 3.75-1.4 0-2.4 0-3.1-.1-.7-.1-1.7-.1-3-.2V164c0 .7-.4 1.1-1.1 1.1H55.2c-.8.1-1.2-.3-1.2-1zm21.8-84.5v33.1c.9.1 1.9.2 2.9.2h4.1c4.6 0 8.8-.7 12.5-2.1 3.2-1.2 5.9-3.3 7.8-6.1 1.8-2.9 2.7-6.4 2.7-10.8 0-3.9-.9-7.3-2.6-10.2-1.9-3.2-4.5-5.6-7.9-7.1-3.7-1.6-8.1-2.4-13.2-2.4-1.7 0-3.1 0-4.3.1-1.2.1-2 .2-2 .3z"/>
  <path fill="#31A8FF" d="M192 106.9c-3-1.6-6.2-2.7-9.6-3.4-3.7-.8-7.4-1.3-11.2-1.3-3 0-5.3.3-6.8.8-1.4.5-2.5 1.3-3.2 2.4-.6.9-.9 2-.9 3.3-.1 1.8.5 3.5 1.7 4.9 1.4 1.5 3.2 2.8 5.2 3.7 2.4 1.2 5.6 2.5 9.7 3.9 5.6 1.8 10.3 3.6 14.3 5.4 3.9 1.8 7.4 4.6 10.1 8.3 2.5 3.7 3.7 8.7 3.6 13.8 0 5.9-1.6 11.2-4.8 15.9-3.3 4.9-8 8.7-13.5 10.9-5.8 2.4-12.5 3.6-20.1 3.6-4.3 0-8.7-.3-13-.9-3.9-.5-7.8-1.4-11.5-2.6-3.2-1.1-6.3-2.5-9.3-4.3-.7-.4-1.2-1.1-1.1-1.9v-17.4c0-.5.1-.9.4-1.2.3-.3.5-.3.9-.1 3.9 2.4 8 4.3 12.4 5.7 4.2 1.4 8.6 2.1 13.1 2.1 2.7 0 4.9-.2 6.6-.7 1.6-.4 2.9-1.2 3.8-2.4.9-1.1 1.4-2.5 1.3-3.9.1-2-.7-3.9-2.2-5.2-1.6-1.4-3.6-2.6-5.7-3.5-2.7-1.3-6-2.6-10.1-4.1-5.5-1.8-10.2-3.6-13.9-5.4-3.7-1.7-7-4.4-9.5-7.8-2.4-3.4-3.6-8-3.6-13.5 0-5.8 1.5-10.8 4.6-15.1 3.1-4.4 7.4-7.8 12.7-10 5.5-2.3 12.2-3.5 20.1-3.5 4.1 0 8.3.3 12.4.9 3.6.5 7.2 1.3 10.6 2.3 2.6.8 4.7 1.7 6.3 2.5.5.3.9.6 1.1.9.2.3.3.7.3 1.2v16.2c0 .6-.2 1-.6 1.2-.4.3-.7.2-1.1 0z"/>
</svg>
